<svg xmlns="http://www.w3.org/2000/svg" width="1290" height="660" shape-rendering="geometricPrecision" image-rendering="optimizeQuality" fill-rule="evenodd" fill="#fefefe" xmlns:v="https://vecta.io/nano"><path d="M518 475c13-1 11-4 12-18 3-35 10-72 15-108l9-63v-3c5-35 24 25 26 30 15 41 32 81 46 123 7 18 17 45 41 40 19-4 26-38 32-54 13-36 29-69 44-105 15-38 24-74 31-2l15 119c1 7 2 34 5 38s16 3 20 3c12 0 47 1 56-2 17-7 9-23 6-38-4-23-7-48-11-71-11-66-21-130-29-196-1-10-4-38-11-44-9-7-30-5-41-5-6 0-12 1-18 1-32 0-30 8-41 35-14 38-30 76-44 113-2 5-15 40-19 41-6 1-19-43-21-48-10-31-24-62-35-93-2-6-4-11-6-17-10-28-8-32-43-31-18 0-35-2-53-1l-4 1c-2 5-28 156-31 177-1 9-3 18-4 27-6 36-11 75-18 110-3 12-12 35 4 40 7 1 40 0 51 1h16z"/><path d="M397 435c9-11 16-19 23-31 4-7 5-7 8-15 11-25 23-74 19-99-1-5-1-7-5-10-6-4-37-2-47-2l-125 1c1 6 0 49 0 62 0 5-1 5 3 6 14 1 63-4 70 2 6 9-5 27-9 35-7 13-29 25-43 28-46 7-79-7-102-48-28-54-21-125 31-163 27-19 60-21 89-4 17 11 27 33 38 37 4 2 7 2 11 2 13-2 45-18 59-24 17-8 14-6 1-25-16-23-25-32-48-50-30-22-64-27-100-26-46 2-81 8-118 36l-3 2c-33 26-52 61-63 101-18 77 5 160 73 205 37 24 75 30 118 30 15 0 32-2 46-6 29-9 54-22 74-44zm546-237l45 64c18 25 20 19 1 50-26 40-50 81-75 121-4 6-27 35-20 40 8 6 65 3 80 3 26 1 22 0 34-21 4-8 8-15 13-22l33-56 2-3c6-11 12 2 16 8 21 32 42 63 66 93 13 0 83 4 88-2 6-7-16-34-21-40l-49-75-36-53c-15-26-6-30 8-54l50-82c1-3 16-28 16-28l11-17c0-5-20-5-23-5-13 0-59-1-70 3h-1c-15 6-35 62-52 78-9 7-19-11-23-17l-30-46c-2-3-9-13-9-16s-93-2-102 0c-2 0-2 0-4 1-3 3 11 18 13 20 13 18 25 36 37 54l2 2z"/></svg>