<?xml version="1.0" encoding="utf-8"?>
<!-- Generator: Adobe Illustrator 20.1.0, SVG Export Plug-In . SVG Version: 6.00 Build 0)  -->
<svg version="1.1" id="Icons" xmlns="http://www.w3.org/2000/svg" x="0px" y="0px"
     width="64px" height="64px" viewBox="0 0 64 64" enable-background="new 0 0 64 64" xml:space="preserve">
<path fill="#757575" d="M52.02,9V37c0,11.03-8.97,20-20,20c-11.03,0-20-8.97-20-20V9H52.02z M55.02,6h-46V37c0,12.7,10.3,23,23,23
	c12.7,0,23-10.3,23-23V6L55.02,6z M32.06,33c3,0,5.4-2.4,5.4-5.4v-3.3c0-3-2.4-5.4-5.4-5.4s-5.4,2.4-5.4,5.4v3.3
	C26.76,30.6,29.16,33,32.06,33z M37.7,35H26.4c-3-0.04-5.4,1.96-5.4,5h22C43.1,36.96,40.7,34.96,37.7,35z"/>
</svg>
